<?xml version="1.0" encoding="utf-8"?>
<!-- Generator: Adobe Illustrator 27.8.1, SVG Export Plug-In . SVG Version: 6.00 Build 0)  -->
<svg version="1.1" id="Layer_1" xmlns="http://www.w3.org/2000/svg" xmlns:xlink="http://www.w3.org/1999/xlink" x="0px" y="0px"
	 viewBox="0 0 2436 1125" style="enable-background:new 0 0 2436 1125;" xml:space="preserve">
<style type="text/css">
	.st0{fill:#231F20;}
	.st1{font-family:'IsabellaSans-Black';}
	.st2{font-size:697px;}
</style>
<path class="st0" d="M272.02,466.33c-13.48-10.57-27.09-20.67-41.07-17.6c-23.99,5.26-43.48,18.17-61.06,34.61
	c-3.31,3.1-6.39,6.46-9.78,9.46c-1.84,1.62-12.38,4.13-16.35,5.06c-2.68,0.63-7.56,1.29-9.87,3.63c-5.23,5.28-5.76,18.33-1.2,24.33
	c4.14,5.45,9.17,10.23,13.82,15.3c4.86,5.29,9.73,10.56,14.94,16.21c0.43,0.47,1.15,0.55,1.68,0.2
	c12.97-8.54,26.93-12.08,42.26-11.66c9.74,0.27,18.13,0.44,25.45,9.36c4.76,5.8,13.52,8.79,20.99,11.8
	c31.7,12.77,60.87,29.08,82.22,56.74c15.8,20.48,24.53,43.84,26.35,69.52c1.47,20.67,0.62,41.28-6.2,61.22
	c-9.26,27.09-25.25,49.43-48.12,66.46c-28.16,20.97-60.36,31.32-95.05,35.42c-28.87,3.41-57.59,2.77-86.05-2.02
	c-25.55-4.3-50.31-11.84-72.76-25.5c-2.03-1.24-7.95-5.23-9.38-6.87c-2.17-2.48-2.27-2.46-1.7-4.91
	c2.95-12.82,6.92-25.41,10.55-38.07c5.05-17.63,10.09-35.26,15.19-52.88c1.8-6.21,3.69-12.4,5.67-18.56
	c1.41-4.39,4.7-5.05,8.65-3.86c8.94,2.68,17.85,5.46,26.8,8.11c3.88,1.15,4.58,3.22,2.03,6.26c-3.51,4.19-7.3,8.16-10.65,12.46
	c-1.48,1.9-2.44,4.21-3.54,6.41c-0.28,0.57-0.11,1.25,0.4,1.62l0,0c0.46,0.33,1.08,0.33,1.53-0.01c2.24-1.66,4.47-3.32,6.71-4.98
	c1.15-0.85,2.62,0.51,1.87,1.72c-9.65,15.45-12.55,17.68-18.71,16.74c-0.51-0.08-1.01,0.15-1.29,0.58c-0.67,1.03-1.44,2.11-1.9,3.32
	c-1.13,2.93-2.09,5.94-3.09,8.92c-0.23,0.69,0.16,1.44,0.87,1.65c3.14,0.92,6.28,2.19,9.44,2.25c16.29,0.29,32.33-2.08,46.11-11.15
	c7.71-5.08,13.79-12.64,20.57-19.12c0.92-0.88,1.74-1.88,3.06-3.4c0.57-0.65,1.6-0.58,2.07,0.14c4.01,6.23,7.86,11.74,11.1,17.6
	c5.56,10.06,14.54,15.26,24.96,18.42c11.48,3.48,23.11,4.64,35.22,3.2c19.81-2.37,37.41,4.84,54.24,14.39
	c1.24,0.71,2.53,1.34,3.85,1.91c0.28,0.12,0.64,0.05,1.37-0.03c0.6-0.06,1.07-0.53,1.15-1.12c0.21-1.56,0.59-3.23,0.16-4.66
	c-10.8-36.08-26.29-69.41-55.96-94.28c-15.62-13.09-34.15-19.53-53.52-24.93c-39.13-10.91-75.74-27.1-104.93-56.58
	c-12.88-13.01-21.81-28.35-28.33-45.71c-10.28-27.35-10.13-54.76-1.98-81.86c9.64-32.06,28.57-57.78,56.91-76.78
	c20.28-13.59,42.32-22.37,65.8-26.72c33.54-6.22,67.38-5.91,100.58,3.01c14.05,3.78,27.84,8.73,41.42,14
	c7.27,2.82,14.09,7.07,20.56,11.48c1.82,1.24,2.9,5.68,2.25,8.09c-4.06,14.96-8.77,29.74-13.16,44.61c-3.65,12.35,3.73-12.33,0,0
	c-0.77,2.54-13.23,41.92-14.49,44.32"/>
<g>
	<text transform="matrix(1 0 0 1 9.8291 850.8145)"><tspan x="0" y="0" class="st1 st2">  </tspan><tspan x="342.91" y="0" class="st1 st2">EALNEXT</tspan></text>
</g>
</svg>
