<?xml version="1.0" encoding="UTF-8"?>
<svg id="Layer_2" data-name="Layer 2" xmlns="http://www.w3.org/2000/svg" viewBox="0 0 583.88 862.15">
  <defs>
    <style>
      .cls-1 {
        stroke-width: 0px;
      }
      <style type="text/css">
	/* Definirea variabilelor CSS pentru culori */
	:root {
		--svg-background: none;
		--svg-color: black;
	}
	/* Dacă este în dark mode, schimbă culorile */
	@media (prefers-color-scheme: dark) {
		:root {
			--svg-background: none;
			--svg-color: white;
		}
	}
	/* Aplică variabilele CSS pentru SVG */
	.cls-1 {
		fill: var(--svg-color);
	}
	svg {
		background-color: var(--svg-background);
	}
</style>
    </style>
  </defs>
  <g id="Layer_1-2" data-name="Layer 1">
    <g id="_1500_x_1500_px_Geometric_Logo_1" data-name="1500 x 1500 px Geometric Logo 1">
      <g id="Text">
        <g id="hi7gcV.tif">
          <g>
            <path class="cls-1" d="m274.28,181.61c-8.09.35-11.89,6.86-12.72,8.95-1.67,4.28,1.21,7.44,4.32,9.71,1.63,1.19,3.48,2.02,5.42,2.46,3.57.82,5.69,1.47,9.08,1.52,4.59.08,8.86-2,11.19-5.73,2.69-4.31,1.48-8.53-.54-10.76-3.43-3.85-6.05-6.61-16.75-6.15Z"/>
            <path class="cls-1" d="m390.1,190.33s-20.77-26.33-61.54-31.52c-44.99-5.74-65.16,10.85-97.62,41.25-5.85,5.48-20.3,15.63-26.85,19.61-9.63,5.83-21.77,5.37-30.72,12.21-12.26,9.38-14.41,23.49-4.92,33.7,3.63,3.87,20.9,23.45,47.71,35.36,25.49,11.33,65.79,14.26,80.36,14.62,18.01.48,22.24,10.82,44.72,27.62,11.06,8.28,24.72,16.98,38.5,22.48,58.56,23.57,114.95,42.67,154.36,93.74,29.19,37.83,45.33,80.99,48.65,128.37,2.72,38.2,1.15,76.21-11.42,113.08-17.1,50.04-46.66,91.26-88.9,122.75-52.04,38.74-149.79,38.96-194.35,38.47-53.67-.6-233.61-21.72-261.65-61.37-18.92-26.77,16.31-169.3,40.67-193.65,12.21-12.21,55.06,4.65,53.25,26.53-.85,10.03-10.8,12.64-19.64,23.03-11.17,13.13-23.51,40.01-23.99,40.86-1.21,1.93-2.66,3.93-3.51,6.1-2.12,5.44-3.87,10.94-5.68,16.5-.42,1.27.3,2.66,1.57,3.02,5.8,1.69,11.6,4.05,17.47,4.17,30.1.54,59.71-3.81,85.16-20.61,14.26-9.37,25.44-23.33,37.96-35.3,1.69-1.63,3.2-3.44,5.62-6.29,1.03-1.21,2.96-1.09,3.81.24,7.43,11.48,14.51,21.7,20.49,32.52,10.27,18.55,26.83,28.16,46.11,34.03,21.21,6.47,42.67,8.58,65.03,5.92,36.57-4.35,69.08,8.94,100.15,26.59,2.3,1.33,4.65,2.48,7.13,3.51.48.24,1.15.12,2.54-.06,1.09-.12,1.99-.97,2.12-2.05.42-2.9,1.09-5.98.3-8.58-19.94-66.6-48.53-128.19-103.35-174.12-28.83-24.18-63.04-36.08-98.82-46.05-72.28-20.13-139.85-50.04-193.77-104.5-23.87-24.12-40.37-52.46-52.4-84.49-18.98-50.53-18.74-101.11-3.63-151.16,17.83-59.23,52.76-106.73,105.1-141.79C153.58,29.98,194.25,13.72,237.65,5.68c61.95-11.48,106.98-4.57,168.26,11.93,25.93,6.95,62.35,22.16,78.78,30.53,21.48,10.94,33.21,21.53,35.45,33.48s-72.21,174.38-88.29,154.62"/>
          </g>
        </g>
      </g>
    </g>
  </g>
</svg>