<?xml version="1.0" encoding="utf-8"?>
<svg version="1.1" xmlns="http://www.w3.org/2000/svg" xmlns:xlink="http://www.w3.org/1999/xlink" x="0px" y="0px"
	 viewBox="0 0 1500 1500" style="enable-background:new 0 0 1500 1500;" xml:space="preserve">
<style type="text/css">
	/* Definirea variabilelor CSS pentru culori */
	:root {
		--svg-background: none;
		--svg-color: black;
	}
	/* Dacă este în dark mode, schimbă culorile */
	@media (prefers-color-scheme: dark) {
		:root {
			--svg-background: none;
			--svg-color: white;
		}
	}
	/* Aplică variabilele CSS pentru SVG */
	.st0 {
		fill: var(--svg-color);
	}
	svg {
		background-color: var(--svg-background);
	}
</style>
<g id="_x31_500_x__x_1500_px_Geometric_Logo_4">
	<g id="Design_Elements_00000033358153405034270210000013699535299103892897_">
	</g>
	<g id="Text_00000110461141305037304430000013828496166001195423_">
	</g>
</g>
<g id="_x31_500_x__x_1500_px_Geometric_Logo_3">
	<g id="Design_Elements_00000100341690494189279070000008979014541625193881_">
	</g>
	<g id="Text_00000011714873782082073790000010679987482954971823_">
	</g>
</g>
<g id="_x31_500_x__x_1500_px_Geometric_Logo_2">
	<g id="Design_Elements_00000052791404155044517790000002553376767608058047_">
	</g>
	<g id="Text_00000141457714054069495030000000518078148360582018_">
	</g>
</g>
<g id="_x31_500_x__x_1500_px_Geometric_Logo_1">
	<g id="Design_Elements">
	</g>
	<g id="Text">
		<g id="SealNext">
		</g>
		<g id="hi7gcV.tif">
			<g>
				<path class="st0" d="M837.77,332.97c-6.49,6.05-5.38,14.59-4.67,17.03c1.91,6.63,10.01,9.19,14.65,8.57
					c5.72-0.77,17.58-6.25,20.02-13.39c4.04-11.86-7.39-17.84-11.91-18.65C850.38,325.55,846.36,324.96,837.77,332.97z"/>
				<path class="st0" d="M1043.16,292.13c-41.19-32.31-82.78-63.16-125.51-53.79c-73.29,16.07-132.87,55.54-186.57,105.75
					c-10.13,9.47-19.54,19.74-29.9,28.9c-5.61,4.96-37.84,12.62-49.97,15.47c-8.19,1.92-23.1,3.94-30.17,11.08
					c-15.99,16.14-17.6,56-3.66,74.36c12.65,16.66,28.02,31.27,42.24,46.74c14.85,16.16,29.75,32.28,45.65,49.53
					c1.33,1.44,3.5,1.69,5.14,0.62c39.64-26.09,82.29-36.92,129.14-35.64c29.77,0.82,55.41,1.34,77.75,28.59
					c14.53,17.73,41.31,26.87,64.14,36.06c96.87,39.03,186.01,88.85,251.25,173.39c48.28,62.57,74.96,133.97,80.52,212.43
					c4.48,63.16,1.88,126.14-18.95,187.07c-28.3,82.78-77.15,151.03-147.05,203.09c-86.06,64.09-184.43,95.7-290.44,108.22
					c-88.21,10.42-175.98,8.46-262.94-6.18c-78.06-13.14-153.72-36.17-222.32-77.91c-6.21-3.78-24.28-15.98-28.67-20.99
					c-6.62-7.57-6.93-7.51-5.2-15c9.01-39.18,21.15-77.64,32.24-116.33c15.44-53.87,30.83-107.75,46.41-161.58
					c5.5-18.99,11.27-37.9,17.32-56.71c4.31-13.43,14.36-15.42,26.44-11.8c27.32,8.2,54.55,16.68,81.9,24.77
					c11.84,3.5,13.99,9.83,6.2,19.13c-10.73,12.8-22.3,24.93-32.55,38.09c-4.53,5.81-7.46,12.87-10.82,19.6
					c-0.86,1.73-0.34,3.82,1.22,4.95h0c1.4,1.01,3.29,1,4.67-0.03c6.83-5.08,13.66-10.15,20.5-15.23c3.51-2.61,8.02,1.56,5.71,5.27
					c-29.49,47.21-38.36,54.02-57.16,51.16c-1.55-0.24-3.09,0.45-3.94,1.76c-2.05,3.15-4.4,6.46-5.82,10.13
					c-3.46,8.96-6.39,18.14-9.43,27.26c-0.71,2.12,0.5,4.4,2.65,5.03c9.61,2.82,19.2,6.69,28.86,6.87
					c49.79,0.89,98.8-6.35,140.88-34.06c23.56-15.51,42.14-38.63,62.85-58.43c2.82-2.7,5.32-5.74,9.35-10.38
					c1.73-1.99,4.89-1.77,6.32,0.44c12.27,19.03,24.02,35.89,33.91,53.77c16.99,30.73,44.44,46.62,76.26,56.29
					c35.07,10.65,70.62,14.19,107.61,9.77c60.54-7.24,114.32,14.78,165.74,43.97c3.8,2.16,7.74,4.11,11.75,5.84
					c0.85,0.37,1.94,0.16,4.2-0.08c1.82-0.2,3.27-1.61,3.52-3.42c0.65-4.76,1.79-9.88,0.48-14.25
					c-32.99-110.25-80.33-212.09-171.01-288.1c-47.73-40.01-104.34-59.68-163.55-76.18c-119.56-33.32-231.44-82.81-320.65-172.89
					c-39.36-39.74-66.64-86.63-86.58-139.67c-31.41-83.58-30.95-167.34-6.04-250.15c29.46-97.95,87.31-176.57,173.91-234.6
					c61.97-41.53,129.32-68.35,201.08-81.66c102.5-19.01,205.89-18.07,307.35,9.2c42.94,11.54,85.07,26.68,126.57,42.77
					c22.21,8.61,43.05,21.6,62.83,35.09c5.56,3.79,8.87,17.36,6.87,24.72c-12.41,45.7-26.79,90.87-40.2,136.3
					c-11.15,37.75,11.38-37.68,0,0c-2.35,7.77-40.44,128.1-44.28,135.42"/>
			</g>
		</g>
	</g>
</g>
</svg>
