<?xml version="1.0" encoding="utf-8"?>
<svg version="1.1" xmlns="http://www.w3.org/2000/svg" xmlns:xlink="http://www.w3.org/1999/xlink" x="0px" y="0px"
	 viewBox="0 0 1500 1500" style="enable-background:new 0 0 1500 1500;" xml:space="preserve">
<style type="text/css">
	/* Definirea variabilelor CSS pentru culori */
	:root {
		--svg-background: none;
		--svg-color: black;
	}
	/* Dacă este în dark mode, schimbă culorile */
	@media (prefers-color-scheme: dark) {
		:root {
			--svg-background: none;
			--svg-color: white;
		}
	}
	/* Aplică variabilele CSS pentru SVG */
	.st0 {
		fill: var(--svg-color);
	}
	.st1 {
		fill: var(--svg-color);
	}
	svg {
		background-color: var(--svg-background);
	}
</style>
<g id="_x31_500_x__x_1500_px_Geometric_Logo_4">
	<g id="Design_Elements_00000033358153405034270210000013699535299103892897_">
	</g>
	<g id="Text_00000110461141305037304430000013828496166001195423_">
	</g>
</g>
<g id="_x31_500_x__x_1500_px_Geometric_Logo_3">
	<g id="Design_Elements_00000100341690494189279070000008979014541625193881_">
	</g>
	<g id="Text_00000011714873782082073790000010679987482954971823_">
	</g>
</g>
<g id="_x31_500_x__x_1500_px_Geometric_Logo_2">
	<g id="Design_Elements_00000052791404155044517790000002553376767608058047_">
	</g>
	<g id="Text_00000141457714054069495030000000518078148360582018_">
	</g>
	<polygon class="st0" points="1246.3,364.6 1251,364.6 1251,364.6 	"/>
	<polygon class="st0" points="1227.6,490.9 1232.3,490.9 1232.3,490.9 	"/>
</g>
<g id="_x31_500_x__x_1500_px_Geometric_Logo_1">
	<g id="Design_Elements">
	</g>
	<g id="Text">
		<g id="Layer_6">
		</g>
		<g id="hi7gcV.tif">
			<g>
				<path class="st1" d="M822.8,376.4c-13,12.1-10.7,29.1-9.3,34c3.8,13.2,20,18.3,29.2,17.1c11.4-1.5,35.1-12.5,39.9-26.7
					c8.1-23.7-14.8-35.6-23.8-37.2C848,361.6,840,360.4,822.8,376.4z"/>
				<path class="st1" d="M1018,298.2c-41.2-32.3-82.8-63.2-125.5-53.8c-73.3,16.1-132.9,55.5-186.6,105.8
					c-10.1,9.5-19.5,19.7-29.9,28.9c-5.6,5-37.8,12.6-50,15.5c-8.2,1.9-23.1,3.9-30.2,11.1c-16,16.1-9,36,6.7,52.9
					c6,6.4,12.5,7.8,16.8,12.7c21.2,24.1,48.9,41.7,80.2,49.1c41.1,9.7,90.8,20.3,114.9,20.9c29.8,0.8,36.8,17.9,74,45.7
					c18.3,13.7,40.9,28.1,63.7,37.2c96.9,39,190.2,70.6,255.4,155.1c48.3,62.6,75,134,80.5,212.4c4.5,63.2,1.9,126.1-18.9,187.1
					c-28.3,82.8-77.2,151-147.1,203.1c-86.1,64.1-184.4,95.7-290.4,108.2c-88.2,10.4-438.9-18.5-485.3-84.1
					c-31.3-44.3,48.2-342.1,88.5-382.4c20.2-20.2,91.1,7.7,88.1,43.9c-1.4,16.6-22.3,24.9-32.5,38.1c-4.5,5.8-7.5,12.9-10.8,19.6
					c-0.9,1.7-4.1,8.6-2.5,9.8c1.4,1,1.5,0.4,4.7-1.1c7.7-3.7,5.9-3.2,14-5.8c2.6-0.8,6.4,2,4.7,6c-7.7,18.4-27.1,40.2-45.9,37.3
					c-1.5-0.2-3.1,0.4-3.9,1.8c-2,3.2-4.4,6.5-5.8,10.1c-3.5,9-6.4,18.1-9.4,27.3c-0.7,2.1,0.5,4.4,2.6,5c9.6,2.8,19.2,6.7,28.9,6.9
					c49.8,0.9,98.8-6.3,140.9-34.1c23.6-15.5,42.1-38.6,62.8-58.4c2.8-2.7,5.3-5.7,9.3-10.4c1.7-2,4.9-1.8,6.3,0.4
					c12.3,19,24,35.9,33.9,53.8c17,30.7,44.4,46.6,76.3,56.3c35.1,10.7,70.6,14.2,107.6,9.8c60.5-7.2,114.3,14.8,165.7,44
					c3.8,2.2,7.7,4.1,11.8,5.8c0.8,0.4,1.9,0.2,4.2-0.1c1.8-0.2,3.3-1.6,3.5-3.4c0.7-4.8,1.8-9.9,0.5-14.2
					c-33-110.2-80.3-212.1-171-288.1c-47.7-40-104.3-59.7-163.5-76.2c-119.6-33.3-231.4-82.8-320.6-172.9
					C395.2,694.9,367.9,648,348,595c-31.4-83.6-31-167.3-6-250.1c29.5-98,87.3-176.6,173.9-234.6c62-41.5,129.3-68.4,201.1-81.7
					c102.5-19,205.9-18.1,307.3,9.2c42.9,11.5,85.1,26.7,126.6,42.8c22.2,8.6,43.1,21.6,62.8,35.1c3,2.1,5.4,7,6.6,12.3
					c2.9,12.7,8,24.9,15.5,35.5c51.8,73.3-43.1,71.4-55.4,113.2c-11.2,37.8-12.3-18.4,0,0c-2.3,7.8-17.7,168.1-44.3,135.4"/>
				<path class="st1" d="M555.4,957.4"/>
			</g>
		</g>
	</g>
</g>
</svg>
