<?xml version="1.0" encoding="utf-8"?>
<!-- Generator: Adobe Illustrator 27.8.1, SVG Export Plug-In . SVG Version: 6.00 Build 0)  -->
<svg version="1.1" id="Layer_1" xmlns="http://www.w3.org/2000/svg" xmlns:xlink="http://www.w3.org/1999/xlink" x="0px" y="0px"
	 viewBox="0 0 6477.1 1070.9" style="enable-background:new 0 0 6477.1 1070.9;" xml:space="preserve">
<g id="_x31_500_x__x_1500_px_Geometric_Logo_4">
	<g id="Design_Elements_00000033358153405034270210000013699535299103892897_">
	</g>
	<g id="Text_00000110461141305037304430000013828496166001195423_">
	</g>
</g>
<g id="_x31_500_x__x_1500_px_Geometric_Logo_3">
	<g id="Design_Elements_00000100341690494189279070000008979014541625193881_">
	</g>
	<g id="Text_00000011714873782082073790000010679987482954971823_">
	</g>
</g>
<g id="_x31_500_x__x_1500_px_Geometric_Logo_2">
	<g id="Design_Elements_00000052791404155044517790000002553376767608058047_">
	</g>
	<g id="Text_00000141457714054069495030000000518078148360582018_">
	</g>
	<polygon points="1134.9,131.7 1139.6,131.7 1139.6,131.7 	"/>
	<polygon points="1116.2,258 1120.9,258 1120.9,258 	"/>
</g>
<g id="_x31_500_x__x_1500_px_Geometric_Logo_1">
	<g id="Design_Elements">
	</g>
	<g id="Text">
		<g id="Layer_6">
		</g>
		<g id="hi7gcV.tif">
			<g>
				<path d="M341.8,321.6c-8.1,0.3-11.9,6.9-12.7,8.9c-1.7,4.3,1.2,7.4,4.3,9.7c1.6,1.2,3.5,2,5.4,2.5c3.6,0.8,5.7,1.5,9.1,1.5
					c4.6,0.1,8.9-2,11.2-5.7c2.7-4.3,1.5-8.5-0.5-10.8C355.2,323.9,352.5,321.1,341.8,321.6z"/>
				<path d="M457.7,330.3c0,0-20.8-26.3-61.5-31.5c-45-5.7-65.2,10.8-97.6,41.2c-5.8,5.5-20.3,15.6-26.9,19.6
					c-9.6,5.8-21.8,5.4-30.7,12.2c-12.3,9.4-14.4,23.5-4.9,33.7c3.6,3.9,20.9,23.4,47.7,35.4c25.5,11.3,65.8,14.3,80.4,14.6
					c18,0.5,22.2,10.8,44.7,27.6c11.1,8.3,24.7,17,38.5,22.5c58.6,23.6,115,42.7,154.4,93.7c29.2,37.8,45.3,81,48.7,128.4
					c2.7,38.2,1.1,76.2-11.4,113.1c-17.1,50-46.7,91.3-88.9,122.8c-52,38.7-149.8,39-194.3,38.5C302,1001.4,122,980.3,94,940.6
					c-18.9-26.8,16.3-169.3,40.7-193.7c12.2-12.2,55.1,4.7,53.2,26.5c-0.8,10-10.8,12.6-19.6,23c-11.2,13.1-23.5,40-24,40.9
					c-1.2,1.9-2.7,3.9-3.5,6.1c-2.1,5.4-3.9,10.9-5.7,16.5c-0.4,1.3,0.3,2.7,1.6,3c5.8,1.7,11.6,4,17.5,4.2
					c30.1,0.5,59.7-3.8,85.2-20.6c14.3-9.4,25.4-23.3,38-35.3c1.7-1.6,3.2-3.4,5.6-6.3c1-1.2,3-1.1,3.8,0.2
					c7.4,11.5,14.5,21.7,20.5,32.5c10.3,18.6,26.8,28.2,46.1,34c21.2,6.5,42.7,8.6,65,5.9c36.6-4.4,69.1,8.9,100.1,26.6
					c2.3,1.3,4.7,2.5,7.1,3.5c0.5,0.2,1.1,0.1,2.5-0.1c1.1-0.1,2-1,2.1-2.1c0.4-2.9,1.1-6,0.3-8.6C510.6,830.5,482,768.9,427.2,723
					c-28.8-24.2-63-36.1-98.8-46.1c-72.3-20.1-139.9-50-193.8-104.5c-23.9-24.1-40.4-52.5-52.4-84.5c-19-50.5-18.7-101.1-3.6-151.2
					c17.8-59.2,52.8-106.7,105.1-141.8c37.5-25.1,78.1-41.3,121.5-49.4c61.9-11.5,107-4.6,168.3,11.9c25.9,7,62.4,22.2,78.8,30.5
					c21.5,10.9,33.2,21.5,35.5,33.5c2.3,12.1-72.2,174.4-88.3,154.6"/>
				<path d="M207.5,707"/>
			</g>
		</g>
	</g>
</g>
<rect x="604" y="-1697" style="fill:none;" width="9.6" height="0"/>
<path d="M1331.7,860v138.7H765.3V145.9h526.2v140H941.6v212.5h300.7v137.4H941.6V860H1331.7z"/>
<path d="M1975.8,768h-291.6L1609,998.7h-176.2l326.6-852.8h158.1l330.5,852.8h-189.2L1975.8,768z M1927.8,629.3L1824.2,339
	l-94.6,290.3H1927.8z"/>
<path d="M2981.5,861.3v137.4H2397V145.9h176.2v715.4H2981.5z"/>
<path d="M3888.7,145.9v852.8h-154.2l-464-603.9l15.5,603.9h-162V145.9h163.3l454.9,594.9l-15.5-594.9H3888.7z"/>
<path d="M4693.5,860v138.7h-566.3V145.9h526.2v140h-349.9v212.5H4604v137.4h-300.7V860H4693.5z"/>
<path d="M6418.4,284.6h-305.9v714.1h-181.4V284.6h-304.6V145.9h791.9V284.6z"/>
<g>
	<polygon points="4788.1,998.7 4999.3,998.7 5088.3,852 4988.8,704.5 	"/>
	<polygon points="5570.9,145.9 5359.6,145.9 5270.6,292.6 5370.1,440 	"/>
	<polygon points="5567.1,998.7 5279.3,574.9 5184.6,434.9 4996.7,145.9 4804.4,145.9 5382.5,998.7 5372.6,998.7 5372.6,998.7 
		5569.6,998.7 5569.6,998.7 	"/>
</g>
</svg>
